# xmcd CD database file
#
# Track frame offsets:
#	150
#	18740
#	34333
#	50100
#	66810
#	80648
#	93468
#	108206
#	121057
#	137279
#	151757
#	168751
#	184559
#	202909
#	218046
#	235021
#	246197
#	261452
#	279479
#
# Disc length: 3972 seconds
#
# Revision: 0
# Processed by: cddbd v1.5.1PL0 Copyright (c) Steve Scherf et al.
# Submitted via: CDex 1.51
#
DISCID=000f8213
DTITLE=Various Artist - Promo Only Canada Country Radio December 2004
DYEAR=2004
DGENRE=Country
TTITLE0=Gretchen Wilson - When I Think About Cheatin'
TTITLE1=Jamie O'Neal - Trying To Find Atlantis
TTITLE2=Lee Ann Womack - I May Hate Myself In The Morning
TTITLE3=Randy Travis - Four Walls
TTITLE4=Jeff Bates - Long, Slow Kisses
TTITLE5=Amy Dalley - Living Together
TTITLE6=Craig Morgan - That's What I Love About Sunday
TTITLE7=David Ball - Louisiana Melody
TTITLE8=David Lee Murphy Feat. Lee Roy Parnell - Inspiration
TTITLE9=Hank Williams Jr. - Devil In The Bottle
TTITLE10=Jimmy Wayne - Paper Angels
TTITLE11=Rodney Atkins - Monkey In The Middle
TTITLE12=Julie Roberts - The Chance
TTITLE13=Chad Brock - That Changed Me
TTITLE14=Rascal Flatts - Bless The Broken Road
TTITLE15=Scooter Lee - This Love Of Ours
TTITLE16=Donovan Chapman - Good Problem To Have
TTITLE17=Terri Clark - The World Needs A Drink
TTITLE18=Amy Dalley - I Would Cry
EXTD=YEAR: 2004
EXTT0=
EXTT1=
EXTT2=
EXTT3=
EXTT4=
EXTT5=
EXTT6=
EXTT7=
EXTT8=
EXTT9=
EXTT10=
EXTT11=
EXTT12=
EXTT13=
EXTT14=
EXTT15=
EXTT16=
EXTT17=
EXTT18=
PLAYORDER=
